PathFileType	4	(X/Y/Z)	./resultDataOpenSim/trcMotMarkerGrf/sub10/qtm-04-03.trc
DataRate	CameraRate	NumFrames	NumMarkers	Units	OrigDataRate	OrigDataStartFrame	OrigNumFrames
250.000000	250.000000	9	24	m	250.000000	255	508
Frame#	Time	L.Toe.Tip			R.Toe.Tip			L.Ankle.Lat			R.Ankle.Lat			L.Ankle.Med			R.Ankle.Med			L.Heel			R.Heel			L.Knee.Lat			R.Knee.Lat			L.Knee.Med			R.Knee.Med			L.Thigh.Upper			R.Thigh.Upper			L.ASIS			R.ASIS			V.Sacral			L.Acromium			R.Acromium			C7			L.Elbow			R.Elbow			L.Wrist.Lat			R.Wrist.Lat
		X1	Y1	Z1	X2	Y2	Z2	X3	Y3	Z3	X4	Y4	Z4	X5	Y5	Z5	X6	Y6	Z6	X7	Y7	Z7	X8	Y8	Z8	X9	Y9	Z9	X10	Y10	Z10	X11	Y11	Z11	X12	Y12	Z12	X13	Y13	Z13	X14	Y14	Z14	X15	Y15	Z15	X16	Y16	Z16	X17	Y17	Z17	X18	Y18	Z18	X19	Y19	Z19	X20	Y20	Z20	X21	Y21	Z21	X22	Y22	Z22	X23	Y23	Z23	X24	Y24	Z24

255	1.016	0.036404192	-0.033363532	-0.10296814	-0.012897331	0.096021423	0.040085577	-0.090525742	0.0052542882	-0.15232145	-0.10493021	0.20430592	0.020155774	-0.094332826	0.032281974	-0.071199714	-0.044364127	0.1914312	-0.044954408	-0.16260742	-0.013370139	-0.11575408	-0.14003246	0.20487581	-0.04384387	0.0081468617	0.38232902	-0.19158927	0.17320079	0.44901953	0.09647295	-0.0062202884	0.36537038	-0.069603262	0.23690015	0.44754335	-0.024528627	0.047598915	0.77414908	-0.26298775	-0.014534715	0.79829734	0.11014059	0.096385815	0.88474724	-0.1908589	0.065802647	0.89543856	0.049910726	-0.11373011	0.90502112	-0.09672136	0.030905488	1.3641948	-0.22613538	-0.021807788	1.359215	0.091935828	-0.075050629	1.3889454	-0.087555833	-0.042763141	1.0327653	-0.31568342	-0.11403345	1.0198611	0.10521474	0.11696516	0.84266015	-0.31904965	-0.0048783425	0.80975076	0.16713094
256	1.02	0.036416341	-0.03330551	-0.10300991	0.0075459092	0.094720424	0.041219032	-0.090314426	0.0058769143	-0.15248645	-0.088158392	0.19968629	0.020703444	-0.09423246	0.032939636	-0.071463001	-0.027475626	0.18869031	-0.044467584	-0.16233343	-0.012679699	-0.11593606	-0.12348479	0.19884734	-0.043118122	0.0082905663	0.38302056	-0.19226326	0.18400865	0.45217286	0.096062479	-0.0057769742	0.36614742	-0.070097289	0.24729488	0.45206911	-0.024552963	0.050683865	0.77451045	-0.26328438	-0.0080492368	0.79970035	0.11026231	0.10044926	0.88523748	-0.19160096	0.07186371	0.89647316	0.049118188	-0.109438	0.90596398	-0.095217991	0.036057187	1.3650418	-0.22584499	-0.016213717	1.3598213	0.092225556	-0.069601206	1.3896929	-0.087143588	-0.035210008	1.0329745	-0.31493149	-0.11106815	1.0214796	0.10528423	0.12837617	0.84523009	-0.31737352	-0.0045287925	0.81004611	0.16819323
257	1.024	0.036465608	-0.033224056	-0.10306919	0.02797369	0.093409808	0.042361467	-0.090108527	0.0064839513	-0.15266407	-0.071270502	0.19491699	0.021199622	-0.094151576	0.03357468	-0.071760783	-0.010369538	0.18592816	-0.043891388	-0.16212082	-0.011963489	-0.11609569	-0.10689565	0.19274903	-0.042294929	0.0082938004	0.3835893	-0.19297242	0.19464878	0.45528153	0.095782451	-0.0050945341	0.36682545	-0.070660276	0.25746997	0.45647461	-0.024623601	0.053772189	0.77484347	-0.26346372	-0.0010444933	0.80117606	0.11065273	0.10461977	0.88572048	-0.19229048	0.07791941	0.89742656	0.04834794	-0.10520046	0.90683998	-0.093694294	0.041195944	1.3658219	-0.22556637	-0.010610922	1.3603695	0.09250042	-0.064152737	1.3903732	-0.086731138	-0.027716999	1.0331396	-0.31404584	-0.10803102	1.0230099	0.10528394	0.1397463	0.8478216	-0.31568166	-0.0040362326	0.81036169	0.16932616
258	1.028	0.036518501	-0.033150271	-0.10314723	0.048361882	0.092107641	0.04351637	-0.089939835	0.0070630776	-0.15285979	-0.054261953	0.19002676	0.021683875	-0.09404872	0.034193868	-0.07206366	0.0069717566	0.18304056	-0.043250449	-0.16194774	-0.011235663	-0.11624335	-0.090183761	0.18661019	-0.041406069	0.0082401967	0.38411555	-0.19370093	0.20515867	0.45832141	0.095611597	-0.0044088714	0.36745241	-0.071229365	0.26741817	0.46074291	-0.024742413	0.056831793	0.77514615	-0.26354089	0.0064745744	0.80271607	0.11132907	0.10878362	0.88616863	-0.19297647	0.083968158	0.89829961	0.047607668	-0.10098387	0.90764368	-0.092167643	0.046314599	1.3665397	-0.22530426	-0.0050070008	1.3608521	0.092764545	-0.058703491	1.3909897	-0.086323526	-0.020276755	1.0332589	-0.31304924	-0.10500828	1.0244764	0.10521706	0.15105901	0.85042839	-0.31398718	-0.0034782475	0.81069291	0.17049089
259	1.032	0.036565479	-0.033091934	-0.10324407	0.06872349	0.090835235	0.044679866	-0.089842852	0.0076149006	-0.15301768	-0.037065619	0.18507146	0.022234785	-0.093897175	0.034803085	-0.07234691	0.024500393	0.17996542	-0.042595251	-0.1617901	-0.010518397	-0.11638503	-0.073190512	0.18042404	-0.040503559	0.0082982499	0.3847139	-0.19444314	0.21551288	0.46126151	0.095444026	-0.0039211948	0.36807205	-0.071766321	0.27713266	0.46486213	-0.024904103	0.059818263	0.77542256	-0.2636073	0.014088371	0.80419207	0.11207293	0.11289847	0.88657751	-0.19367732	0.090011808	0.89909226	0.046901308	-0.09675618	0.90836935	-0.090655075	0.051401506	1.367204	-0.22506428	0.00060903379	1.3612679	0.093021388	-0.053251874	1.3915438	-0.085922296	-0.012882481	1.0333311	-0.31196413	-0.10202582	1.0258944	0.10512428	0.16232695	0.85305309	-0.31227727	-0.0029849994	0.81103101	0.17161146
260	1.036	0.03662624	-0.033042537	-0.10336495	0.08907336	0.089610967	0.045848662	-0.089842404	0.0081513446	-0.15305006	-0.019663289	0.18010804	0.022918177	-0.093698692	0.035406467	-0.072613478	0.042135561	0.17671122	-0.041945178	-0.16164936	-0.0098067408	-0.11651815	-0.05577334	0.17417026	-0.039664342	0.0085512777	0.38541943	-0.19522586	0.22567564	0.464074	0.095212278	-0.0036607921	0.36868346	-0.072278953	0.28661284	0.46883131	-0.025094876	0.062750647	0.77567759	-0.26372347	0.021401208	0.80549418	0.11265983	0.11697404	0.88695082	-0.1943801	0.096048853	0.89980207	0.046229053	-0.092485542	0.90901134	-0.089172866	0.056458894	1.3678141	-0.22484198	0.0062453317	1.3616179	0.093274146	-0.047795765	1.3920303	-0.085526964	-0.0055263303	1.0333545	-0.31081381	-0.098977045	1.0272575	0.10505036	0.17356059	0.85569791	-0.3105432	-0.0026302262	0.81136285	0.1726419
261	1.04	0.036714972	-0.033002721	-0.10350434	0.10945637	0.088429838	0.047002934	-0.089935055	0.0086875221	-0.15290163	-0.0021448437	0.17516536	0.023725796	-0.093456452	0.036010187	-0.072881339	0.059844135	0.17335402	-0.041282441	-0.16155918	-0.0090671745	-0.11662974	-0.037858328	0.16783071	-0.038956259	0.0089583577	0.3861754	-0.19602842	0.23565947	0.46675951	0.094919158	-0.0034766151	0.36924693	-0.072799095	0.29587281	0.47265755	-0.025305703	0.065691547	0.77591586	-0.26386586	0.028403224	0.8066299	0.1130685	0.12102385	0.88728201	-0.19506768	0.10207107	0.90042486	0.045588689	-0.088139598	0.90956402	-0.087736365	0.06151071	1.3683546	-0.224624	0.011895629	1.3619017	0.093527514	-0.042331191	1.3924397	-0.085136294	0.0018035786	1.0333273	-0.30962459	-0.095743305	1.0285525	0.10500989	0.18475628	0.85835931	-0.30879513	-0.00237966	0.81168141	0.17359392
262	1.044	0.03680499	-0.032982936	-0.10362628	0.12993786	0.087277063	0.048119708	-0.090073601	0.0092271964	-0.15262141	0.015399231	0.17024318	0.024573356	-0.09315525	0.036610678	-0.073168289	0.077654252	0.16997932	-0.04059616	-0.16156315	-0.0082605155	-0.11670644	-0.019459105	0.16139823	-0.03843199	0.0094473856	0.38687373	-0.19670144	0.24550032	0.46933789	0.094584237	-0.0031738044	0.36971909	-0.073329946	0.30492991	0.47633785	-0.025539591	0.068679301	0.77614033	-0.26396114	0.035423267	0.80769132	0.11346863	0.12503703	0.8875525	-0.19574205	0.10807305	0.90096104	0.044979397	-0.083684557	0.91002104	-0.086362017	0.066585127	1.3688087	-0.22440653	0.017553919	1.3621188	0.093783571	-0.03685624	1.3927639	-0.084749008	0.0091262583	1.0332463	-0.30842792	-0.092311867	1.0297737	0.10498471	0.19590723	0.86103178	-0.30705085	-0.0021608135	0.81198841	0.17450414
263	1.048	0.03684793	-0.03298734	-0.10368996	0.15053914	0.08615345	0.049200287	-0.090183808	0.0097528323	-0.15235225	0.033014992	0.16533033	0.025358912	-0.09279453	0.037186014	-0.073469265	0.095602472	0.16662319	-0.03991978	-0.16165319	-0.0073978457	-0.11674843	-0.0006281156	0.1548842	-0.038125186	0.0099734271	0.38742017	-0.19706721	0.25521981	0.47180948	0.094226943	-0.0027341547	0.37009548	-0.073786774	0.31378664	0.47984914	-0.025804315	0.071685982	0.77634486	-0.26397334	0.042807693	0.80875612	0.11404966	0.12901124	0.88775141	-0.19641025	0.11405659	0.90141696	0.044403679	-0.079084249	0.9103745	-0.085073223	0.071693894	1.3691694	-0.22420071	0.023223838	1.3622661	0.094034941	-0.031376562	1.3929968	-0.084364732	0.016464291	1.0331075	-0.3072579	-0.088759717	1.0309236	0.10495621	0.20700967	0.86371201	-0.30531935	-0.0019215684	0.81228755	0.17540051
